<?xml version="1.0" encoding="UTF-8" standalone="no"?>
<svg
   version="1.1"
   id="Layer_1"
   x="0px"
   y="0px"
   width="100%"
   viewBox="0 0 800 800"
   enable-background="new 0 0 800 800"
   xml:space="preserve"
   sodipodi:docname="logo.svg"
   inkscape:version="1.4.3 (0d15f75042, 2025-12-25)"
   xmlns:inkscape="http://www.inkscape.org/namespaces/inkscape"
   xmlns:sodipodi="http://sodipodi.sourceforge.net/DTD/sodipodi-0.dtd"
   xmlns="http://www.w3.org/2000/svg"
   xmlns:svg="http://www.w3.org/2000/svg"><defs
   id="defs7" /><sodipodi:namedview
   id="namedview7"
   pagecolor="#ffffff"
   bordercolor="#999999"
   borderopacity="1"
   inkscape:showpageshadow="2"
   inkscape:pageopacity="0"
   inkscape:pagecheckerboard="0"
   inkscape:deskcolor="#d1d1d1"
   inkscape:zoom="1.06125"
   inkscape:cx="400"
   inkscape:cy="400"
   inkscape:window-width="1920"
   inkscape:window-height="1123"
   inkscape:window-x="0"
   inkscape:window-y="0"
   inkscape:window-maximized="1"
   inkscape:current-layer="Layer_1" />
<path
   fill="#FFFFFF"
   opacity="1.000000"
   stroke="none"
   d=" M347.000000,801.000000   C231.333328,801.000000 116.166664,801.000000 1.000000,801.000000   C1.000000,534.333313 1.000000,267.666656 1.000000,1.000000   C267.666656,1.000000 534.333313,1.000000 801.000000,1.000000   C801.000000,267.666656 801.000000,534.333313 801.000000,801.000000   C649.833313,801.000000 498.666656,801.000000 347.000000,801.000000  M73.895821,537.620056   C86.150635,547.686890 103.153267,549.495178 116.840576,541.894043   C131.336288,533.843994 137.651718,521.079468 137.646439,504.788544   C137.625046,438.790802 137.649429,372.793030 137.610428,306.795319   C137.607880,302.473938 137.386536,298.136505 136.974747,293.834503   C135.430450,277.700592 119.671638,262.768311 103.571533,260.894836   C80.490334,258.209076 59.561344,275.837769 59.593967,300.811981   C59.684105,369.809540 59.595455,438.807251 59.670078,507.804840   C59.682838,519.604065 64.509682,529.366089 73.895821,537.620056  M401.848236,354.500061   C401.848236,352.501068 401.871185,350.501740 401.844635,348.503113   C401.601624,330.194366 402.202667,311.823883 400.880646,293.593048   C399.302277,271.827454 374.719849,255.872620 353.656250,261.759460   C334.600525,267.085144 323.861969,281.518829 323.853821,302.043121   C323.826843,370.012390 323.843536,437.981689 323.850220,505.950958   C323.850372,507.615875 323.859131,509.285950 323.981079,510.944977   C325.740265,534.876465 350.157196,551.836731 373.126343,545.097229   C390.797729,539.912109 401.811035,525.016724 401.830658,505.932037   C401.882263,455.788086 401.848206,405.644073 401.848236,354.500061  M612.453308,532.919373   C618.457031,525.812500 621.937012,517.626160 621.947754,508.314026   C622.027832,438.983856 622.019592,369.653534 621.968811,300.323334   C621.962463,291.628723 619.608765,283.513550 614.247986,276.547089   C603.217773,262.213165 586.830872,257.276611 569.806519,262.974487   C554.692261,268.033081 544.069214,283.051758 544.043945,300.324768   C543.942627,369.654877 543.950989,438.985352 544.053650,508.315460   C544.076477,523.714600 554.705444,538.678101 568.723083,543.953613   C584.165710,549.765381 601.077271,545.669250 612.453308,532.919373  M247.667892,472.937531   C269.611298,484.180267 296.163574,472.947327 302.839661,449.324432   C307.219147,433.827850 302.762451,420.567474 291.515228,409.318237   C269.971527,387.770660 248.494980,366.155884 226.930557,344.629089   C224.233704,341.936920 221.327744,339.398499 218.256546,337.146271   C199.500046,323.391418 171.979691,329.934021 161.316238,350.595825   C153.141357,366.435669 156.046860,383.981781 169.601364,397.668671   C191.744720,420.028351 214.048355,442.230225 236.414871,464.366852   C239.568909,467.488495 243.458984,469.866394 247.667892,472.937531  M484.808411,280.626007   C463.631592,273.162781 444.694885,276.898560 428.829559,292.838837   C413.199036,308.543152 409.788177,327.469299 417.013885,348.076874   C423.747620,367.281494 443.044128,381.096985 462.935883,381.922729   C488.454895,382.982086 511.334381,366.039856 516.914001,341.951996   C522.868774,316.244598 510.100098,291.394562 484.808411,280.626007  M683.639954,277.059967   C669.939880,277.814331 658.388306,283.094574 648.585022,292.791962   C630.563782,310.618622 628.172852,340.153992 643.439331,360.252197   C660.000916,382.055420 688.968933,388.445068 711.455627,375.254974   C732.395813,362.972015 742.555237,338.741394 736.379333,315.810822   C730.074036,292.399750 709.659546,277.117889 683.639954,277.059967  z"
   id="path1" />





<g
   id="g7"
   transform="translate(1.1180435,-3.5568704)"><path
     fill="#010101"
     opacity="1"
     stroke="none"
     d="m 73.623993,537.38648 c -9.114311,-8.02039 -13.941155,-17.78242 -13.953915,-29.58164 -0.07462,-68.99759 0.01403,-137.9953 -0.07611,-206.99286 -0.03262,-24.97421 20.896367,-42.6029 43.977562,-39.91714 16.10011,1.87347 31.85892,16.80575 33.40322,32.93966 0.41179,4.302 0.63313,8.63944 0.63568,12.96082 0.039,65.99771 0.0146,131.99548 0.036,197.99322 0.005,16.29093 -6.31015,29.05545 -20.80586,37.1055 -13.68731,7.60114 -30.689944,5.79285 -43.216586,-4.50756 z"
     id="path2" /><path
     fill="#010101"
     opacity="1"
     stroke="none"
     d="m 401.84824,355.00006 c -3e-5,50.64401 0.034,100.78803 -0.0176,150.93198 -0.0196,19.08468 -11.03293,33.98007 -28.70432,39.16519 -22.96914,6.7395 -47.38607,-10.22076 -49.14526,-34.15225 -0.12195,-1.65903 -0.13071,-3.3291 -0.13086,-4.99402 -0.007,-67.96927 -0.0234,-135.93857 0.004,-203.90784 0.008,-20.52429 10.7467,-34.95798 29.80243,-40.28366 21.0636,-5.88684 45.64603,10.06799 47.2244,31.83359 1.32202,18.23083 0.72097,36.60132 0.96398,54.91006 0.0266,1.99863 0.004,3.99796 0.004,6.49695 z"
     id="path3" /><path
     fill="#000000"
     opacity="1"
     stroke="none"
     d="m 612.22406,533.19605 c -11.14679,12.4732 -28.05835,16.56933 -43.50098,10.75756 -14.01764,-5.27551 -24.6466,-20.23901 -24.66943,-35.63815 -0.10266,-69.33011 -0.11102,-138.66058 -0.01,-207.99069 0.0253,-17.27301 10.64832,-32.29169 25.76258,-37.35028 17.02435,-5.69788 33.41125,-0.76133 44.44147,13.5726 5.36077,6.96646 7.71447,15.08163 7.72082,23.77624 0.0508,69.3302 0.059,138.66053 -0.0211,207.9907 -0.0107,9.31213 -3.49072,17.49847 -9.72369,24.88202 z"
     id="path4" /><path
     fill="#020202"
     opacity="1"
     stroke="none"
     d="m 247.33813,472.76306 c -3.87915,-2.89667 -7.76922,-5.27457 -10.92326,-8.39621 -22.36652,-22.13662 -44.67015,-44.3385 -66.81351,-66.69818 -13.5545,-13.68689 -16.46,-31.233 -8.28512,-47.07285 10.66345,-20.6618 38.18381,-27.2044 56.94031,-13.44955 3.07119,2.25223 5.97715,4.79065 8.67401,7.48282 21.56442,21.52679 43.04097,43.14157 64.58467,64.68915 11.24722,11.24923 15.70392,24.50961 11.32443,40.00619 -6.67609,23.6229 -33.22836,34.85584 -55.50153,23.43863 z"
     id="path5" /><path
     fill="#010101"
     opacity="1"
     stroke="none"
     d="m 485.17261,280.75629 c 24.92749,10.63827 37.69616,35.48831 31.74139,61.19571 -5.57962,24.08786 -28.4591,41.03009 -53.97812,39.97073 -19.89175,-0.82574 -39.18826,-14.64124 -45.92199,-33.84586 -7.22571,-20.60757 -3.81485,-39.53372 11.81567,-55.23803 15.86532,-15.94028 34.80203,-19.67606 56.34305,-12.08255 z"
     id="path6" /><path
     fill="#010101"
     opacity="1"
     stroke="none"
     d="m 684.10626,277.04459 c 25.55329,0.0733 45.96778,15.35516 52.27307,38.76623 6.17591,22.93057 -3.98352,47.16119 -24.9237,59.44415 -22.4867,13.1901 -51.45471,6.80045 -68.0163,-15.00277 -15.26648,-20.09821 -12.87555,-49.63358 5.14569,-67.46024 9.80329,-9.69739 21.35486,-14.97763 35.52124,-15.74737 z"
     id="path7" /></g>
</svg>
